<svg id="visual" viewBox="0 0 960 540" width="960" height="540" xmlns="http://www.w3.org/2000/svg" xmlns:xlink="http://www.w3.org/1999/xlink" version="1.1"><rect x="0" y="0" width="960" height="540" fill="#000000"></rect><defs><linearGradient id="grad1_0" x1="43.8%" y1="0%" x2="100%" y2="100%"><stop offset="14.444444444444446%" stop-color="#000000" stop-opacity="1"></stop><stop offset="85.55555555555554%" stop-color="#000000" stop-opacity="1"></stop></linearGradient></defs><defs><linearGradient id="grad2_0" x1="0%" y1="0%" x2="56.3%" y2="100%"><stop offset="14.444444444444446%" stop-color="#000000" stop-opacity="1"></stop><stop offset="85.55555555555554%" stop-color="#000000" stop-opacity="1"></stop></linearGradient></defs><g transform="translate(960, 0)"><path d="M0 135C-21 127.2 -42 119.4 -63 109.1C-84 98.8 -104.9 86.1 -116.9 67.5C-128.9 48.9 -132 24.5 -135 0L0 0Z" fill="#3cbbfa"></path></g><g transform="translate(0, 540)"><path d="M0 -135C24.5 -132 48.9 -128.9 67.5 -116.9C86.1 -104.9 98.8 -84 109.1 -63C119.4 -42 127.2 -21 135 0L0 0Z" fill="#3cbbfa"></path></g></svg>